<svg width="32" height="32" viewBox="0 0 32 32" fill="none" xmlns="http://www.w3.org/2000/svg">
<path d="M9.61912 11H16.5H21.8535C22.3272 11 22.7359 11.3323 22.8325 11.796L25.7492 25.796C25.8785 26.417 25.4045 27 24.7702 27H7.18857C6.5679 27 6.09714 26.4405 6.20331 25.8289L8.63386 11.8289C8.71704 11.3498 9.13284 11 9.61912 11Z" stroke="#343D8C"/>
<path d="M12 11L12.7549 7.60317C13.0929 6.08217 14.4419 5 16 5V5C17.5581 5 18.9071 6.08217 19.2451 7.60316L20 11" stroke="#343D8C"/>
<circle cx="12" cy="15" r="1" fill="#343D8C"/>
<circle cx="20" cy="15" r="1" fill="#343D8C"/>
</svg>
