<svg width="28" height="28" viewBox="0 0 28 28" fill="none" xmlns="http://www.w3.org/2000/svg">
<path d="M14 3.05402L16.0858 5.21895L16.2948 5.43588L16.5842 5.35251L19.473 4.52051L20.1969 7.43828L20.2694 7.73064L20.5618 7.80317L23.4795 8.52703L22.6475 11.4158L22.5642 11.7053L22.7811 11.9143L24.946 14L22.7811 16.0858L22.5642 16.2948L22.6475 16.5843L23.4795 19.473L20.5618 20.1969L20.2694 20.2694L20.1969 20.5618L19.473 23.4796L16.5842 22.6476L16.2948 22.5642L16.0858 22.7811L14 24.9461L11.9142 22.7811L11.7052 22.5642L11.4158 22.6476L8.527 23.4796L7.80314 20.5618L7.73061 20.2694L7.43825 20.1969L4.52048 19.473L5.35248 16.5843L5.43585 16.2948L5.21892 16.0858L3.05399 14L5.21892 11.9143L5.43585 11.7053L5.35248 11.4158L4.52048 8.52703L7.43825 7.80317L7.73061 7.73064L7.80314 7.43828L8.527 4.52051L11.4158 5.35251L11.7052 5.43588L11.9142 5.21895L14 3.05402Z" stroke="#125E8F"/>
<path d="M9.33334 14.4666L12.5417 17.8889L18.6667 10.1111" stroke="#125E8F"/>
</svg>
