<svg width="16" height="16" viewBox="0 0 16 16" fill="none" xmlns="http://www.w3.org/2000/svg">
<path fill-rule="evenodd" clip-rule="evenodd" d="M2.50001 4.00016C2.50001 3.90812 2.57463 3.8335 2.66668 3.8335H13.3333C13.4254 3.8335 13.5 3.90812 13.5 4.00016V4.05309L8.00001 7.4142L2.50001 4.05309V4.00016ZM1.50001 4.32452C1.49991 4.3302 1.49991 4.33588 1.50001 4.34155V12.0002C1.50001 12.6445 2.02235 13.1668 2.66668 13.1668H13.3333C13.9777 13.1668 14.5 12.6445 14.5 12.0002V4.34146C14.5001 4.33585 14.5001 4.33023 14.5 4.3246V4.00016C14.5 3.35583 13.9777 2.8335 13.3333 2.8335H2.66668C2.02235 2.8335 1.50001 3.35583 1.50001 4.00016V4.32452ZM13.5 5.22503V12.0002C13.5 12.0922 13.4254 12.1668 13.3333 12.1668H2.66668C2.57463 12.1668 2.50001 12.0922 2.50001 12.0002V5.22504L8.00001 8.58615L13.5 5.22503Z" fill="#06AD79"/>
</svg>
