<svg width="32" height="32" viewBox="0 0 32 32" fill="none" xmlns="http://www.w3.org/2000/svg">
<path d="M6.66667 29.3334H25.3333C26.804 29.3334 28 28.1374 28 26.6667V12.0001C28 11.6465 27.8595 11.3073 27.6095 11.0573C27.3594 10.8072 27.0203 10.6667 26.6667 10.6667H22.6667V9.33342C22.6667 5.65741 19.676 2.66675 16 2.66675C12.324 2.66675 9.33333 5.65741 9.33333 9.33342V10.6667H5.33333C4.97971 10.6667 4.64057 10.8072 4.39052 11.0573C4.14048 11.3073 4 11.6465 4 12.0001V26.6667C4 28.1374 5.196 29.3334 6.66667 29.3334ZM12 9.33342C12 7.12808 13.7947 5.33341 16 5.33341C18.2053 5.33341 20 7.12808 20 9.33342V10.6667H12V9.33342ZM6.66667 13.3334H9.33333H12H20H22.6667H25.3333L25.336 26.6667H6.66667V13.3334Z" fill="#125E8F"/>
<circle cx="16" cy="17" r="2" fill="#125E8F"/>
<rect x="15" y="17" width="2" height="7" fill="#125E8F"/>
</svg>
