<svg width="16" height="16" viewBox="0 0 16 16" fill="none" xmlns="http://www.w3.org/2000/svg">
<path d="M11.5944 10.4343C10.7384 10.9778 9.56065 11.1934 8.78277 11.2746L9.43569 11.9182L11.8193 14.3018C12.6909 15.1953 11.2726 16.5917 10.3916 15.7295C9.79496 15.1234 8.92023 14.2487 8.00801 13.3365L5.62438 15.7264C4.7434 16.5855 3.32509 15.1765 4.20607 14.2987C4.81213 13.6926 5.67749 12.8179 6.5897 11.915L7.23325 11.2715C6.46474 11.1903 5.26824 10.9872 4.40288 10.4311C3.38445 9.77508 2.93771 9.39083 3.33134 8.58795C3.56252 8.13184 4.1967 7.74759 5.03706 8.40988C5.03706 8.40988 6.17108 9.31273 8.00176 9.31273C9.83244 9.31273 10.9665 8.40988 10.9665 8.40988C11.8068 7.75071 12.4379 8.13184 12.6722 8.58795C13.0596 9.39083 12.6128 9.77508 11.5944 10.4343ZM3.94678 4.05186C3.94678 1.81194 5.76808 0 7.99864 0C10.2292 0 12.0505 1.81194 12.0505 4.05186C12.0505 6.28242 10.2292 8.09436 7.99864 8.09436C5.76808 8.09436 3.94678 6.28242 3.94678 4.05186ZM6.00863 4.05186C6.00863 5.1484 6.90211 6.04187 7.99864 6.04187C9.09517 6.04187 9.98865 5.1484 9.98865 4.05186C9.98865 2.94596 9.09517 2.05249 7.99864 2.05249C6.90211 2.05249 6.00863 2.94596 6.00863 4.05186Z" fill="#343D8C"/>
</svg>
