<svg width="32" height="32" viewBox="0 0 32 32" fill="none" xmlns="http://www.w3.org/2000/svg">
<path d="M6 16C6.68376 14.3333 9.58974 11 15.7436 11C21.8974 11 25.1453 14.3333 26 16" stroke="#125E8F"/>
<path d="M25 15C24.3846 17 21.7692 21 16.2308 21C10.6923 21 7.76923 17 7 15" stroke="#125E8F"/>
<path d="M16.2466 19C11.6066 19 10.8333 14.8333 11.0266 12.5C12 11.5266 14.4439 11 16.2466 11C18.0493 11 20.3867 12 20.8867 12.5C21.2733 14.8333 20.8867 19 16.2466 19Z" stroke="#125E8F"/>
<path d="M6 25.5L26.5 5" stroke="#125E8F"/>
</svg>
