<svg width="36" height="36" viewBox="0 0 36 36" fill="none" xmlns="http://www.w3.org/2000/svg">
<path d="M20.8197 23V27.0164L4 31V9.02176L20.8197 4V7.5" stroke="#00C1FF" stroke-width="2"/>
<path d="M9.37436 12.6286L6 13.6282V22.9244L8.03735 22.3209V19.3992L9.37436 19.0032C11.1316 18.4827 12.494 16.6581 12.494 14.8918C12.494 13.1255 11.1316 12.1081 9.37436 12.6286ZM9.37436 17.0111L8.03735 17.4072V15.0167L9.37436 14.6207C9.9983 14.4359 10.4567 14.818 10.4567 15.4953C10.4567 16.1726 9.9983 16.8263 9.37436 17.0111Z" fill="#00C1FF"/>
<path d="M17.0761 10.3473L13.5107 11.4034V20.6996L17.0761 19.6435C19.5336 18.9155 21.4055 16.3425 21.4055 13.713C21.4055 11.0835 19.5336 9.61933 17.0761 10.3473ZM17.0761 17.5983L15.5481 18.051V12.8451L17.0761 12.3925C18.4768 11.9776 19.4445 12.7002 19.4445 14.2938C19.4445 15.8875 18.4768 17.1834 17.0761 17.5983Z" fill="#00C1FF"/>
<path d="M27.9627 9.1677V7.12253L22.551 8.72556V18.0218L24.5883 17.4183V14.0052L27.899 13.0246V10.9794L24.5883 11.9601V10.1672L27.9627 9.1677Z" fill="#00C1FF"/>
<path d="M26 22L26 32" stroke="#00C1FF"/>
<path d="M30 28L26 32L22 28" stroke="#00C1FF"/>
</svg>
