<svg width="16" height="16" viewBox="0 0 16 16" fill="none" xmlns="http://www.w3.org/2000/svg">
<path d="M12.0706 15C11.9313 14.9996 11.7923 14.9843 11.6562 14.9544C9.06509 14.4184 6.67795 13.1616 4.76956 11.3287C2.9019 9.49182 1.60657 7.15304 1.04031 4.59536C0.973541 4.2766 0.989929 3.94602 1.0879 3.63542C1.18587 3.32482 1.36212 3.04466 1.5997 2.8219L3.25714 1.22661C3.3418 1.14655 3.44239 1.08524 3.55234 1.04668C3.66229 1.00813 3.77914 0.993194 3.89526 1.00285C4.01566 1.01541 4.13184 1.0542 4.23564 1.11648C4.33944 1.17876 4.42834 1.26302 4.49608 1.36335L6.56789 4.42547C6.64558 4.54429 6.68309 4.68491 6.67488 4.82663C6.66668 4.96836 6.61319 5.10371 6.52231 5.21276L5.48226 6.45584C5.89648 7.3726 6.48309 8.20116 7.21015 8.89643C7.9325 9.61692 8.78631 10.1922 9.72532 10.5912L11.014 9.5677C11.1222 9.48216 11.2539 9.43159 11.3916 9.4227C11.5293 9.41382 11.6664 9.44705 11.7847 9.51797L14.9131 11.5401C15.0205 11.6042 15.1119 11.6917 15.1806 11.7962C15.2494 11.9007 15.2935 12.0193 15.3099 12.1433C15.3262 12.2672 15.3143 12.3933 15.275 12.512C15.2357 12.6307 15.1701 12.739 15.083 12.8287L13.467 14.4282C13.2834 14.6108 13.0656 14.7554 12.8259 14.8535C12.5863 14.9516 12.3296 15.0014 12.0706 15V15ZM3.82896 1.82329L2.17152 3.41858C2.03787 3.54311 1.93893 3.70029 1.88444 3.87466C1.82995 4.04902 1.82179 4.23457 1.86075 4.41304C2.38728 6.81308 3.59763 9.00926 5.34552 10.7362C7.14144 12.4606 9.38787 13.6427 11.8261 14.1464C12.0107 14.185 12.2019 14.1772 12.3827 14.1236C12.5635 14.0701 12.7282 13.9726 12.862 13.8398L14.478 12.2403L11.4573 10.2887L10.0734 11.3909C10.0204 11.4328 9.95797 11.4612 9.89152 11.4734C9.82508 11.4857 9.75664 11.4816 9.69217 11.4613C8.54302 11.0379 7.50163 10.3658 6.64247 9.49311C5.75381 8.66323 5.06401 7.64341 4.62453 6.50971C4.60594 6.44108 4.60532 6.36882 4.62274 6.29988C4.64016 6.23093 4.67502 6.16764 4.72398 6.11607L5.84276 4.77768L3.82896 1.82329Z" fill="#06AD79"/>
</svg>
