<svg width="16" height="16" viewBox="0 0 16 16" fill="none" xmlns="http://www.w3.org/2000/svg">
<path d="M7.99999 4C7.50554 4 7.02219 4.14662 6.61107 4.42132C6.19995 4.69602 5.87951 5.08647 5.6903 5.54328C5.50108 6.0001 5.45157 6.50276 5.54803 6.98772C5.64449 7.47267 5.8826 7.91812 6.23223 8.26776C6.58186 8.61739 7.02731 8.85549 7.51227 8.95195C7.99722 9.04841 8.49988 8.99891 8.9567 8.80969C9.41351 8.62047 9.80396 8.30004 10.0787 7.88891C10.3534 7.47779 10.5 6.99444 10.5 6.49999C10.4992 5.83718 10.2356 5.20174 9.76692 4.73307C9.29824 4.26439 8.6628 4.00076 7.99999 4V4ZM7.99999 7.99999C7.70332 7.99999 7.41331 7.91202 7.16664 7.74719C6.91996 7.58237 6.72771 7.3481 6.61417 7.07402C6.50064 6.79993 6.47094 6.49833 6.52882 6.20736C6.58669 5.91639 6.72955 5.64911 6.93933 5.43933C7.14911 5.22955 7.41639 5.08669 7.70736 5.02882C7.99833 4.97094 8.29993 5.00064 8.57402 5.11417C8.8481 5.22771 9.08237 5.41996 9.24719 5.66664C9.41202 5.91331 9.49999 6.20332 9.49999 6.49999C9.49954 6.89768 9.34136 7.27895 9.06016 7.56016C8.77895 7.84136 8.39768 7.99954 7.99999 7.99999V7.99999ZM7.99999 1C6.54181 1.00165 5.14383 1.58165 4.11274 2.61274C3.08165 3.64383 2.50165 5.04181 2.5 6.49999C2.5 8.46224 3.40687 10.5424 5.12268 12.5156C5.8948 13.4072 6.76366 14.2101 7.71324 14.9096C7.79729 14.9684 7.8974 15 7.99999 15C8.10259 15 8.2027 14.9684 8.28674 14.9096C9.23632 14.2101 10.1052 13.4072 10.8773 12.5156C12.593 10.5424 13.5 8.4623 13.5 6.49999C13.4983 5.04181 12.9183 3.64383 11.8872 2.61274C10.8562 1.58165 9.45817 1.00165 7.99999 1V1ZM7.99999 13.8737C6.96668 13.0632 3.5 10.0769 3.5 6.49999C3.5 5.30652 3.9741 4.16193 4.81802 3.31802C5.66193 2.4741 6.80652 2 7.99999 2C9.19346 2 10.3381 2.4741 11.182 3.31802C12.0259 4.16193 12.5 5.30652 12.5 6.49999C12.5 10.077 9.03311 13.0634 7.99999 13.8737V13.8737Z" fill="#06AD79"/>
</svg>
