<svg width="24" height="25" viewBox="0 0 24 25" fill="none" xmlns="http://www.w3.org/2000/svg">
<g clip-path="url(#clip0_5301_5544)">
<path fill-rule="evenodd" clip-rule="evenodd" d="M0 0.5H24V24.5H0V0.5ZM2.84858 12.052L18.8977 5.79785C19.5085 5.55982 20.1398 6.09445 20.0057 6.73614L17.2656 19.8365C17.137 20.4512 16.416 20.7273 15.9097 20.3557L11.7725 17.3189L9.66392 19.4719C9.29386 19.8497 8.65459 19.6968 8.4956 19.1923L6.97359 14.3629L2.89535 13.1586C2.36024 13.0006 2.32875 12.2546 2.84858 12.052ZM9.43083 15.2974L16.8855 8.70515C17.064 8.54737 16.8567 8.26868 16.6543 8.39433L7.85106 13.8542C7.69607 13.9503 7.62556 14.139 7.67964 14.3132L8.8605 18.1183C8.88535 18.1982 9.00179 18.1872 9.01116 18.104L9.29818 15.5526C9.30924 15.454 9.35653 15.3631 9.43083 15.2974Z" fill="#343D8C"/>
</g>
<defs>
<clipPath id="clip0_5301_5544">
<rect width="24" height="24" fill="white" transform="translate(0 0.5)"/>
</clipPath>
</defs>
</svg>
