<svg width="16" height="16" viewBox="0 0 16 16" fill="none" xmlns="http://www.w3.org/2000/svg">
<g clip-path="url(#clip0_5373_36578)">
<path fill-rule="evenodd" clip-rule="evenodd" d="M0.924988 7.9998C0.924988 4.09229 4.09247 0.924805 7.99999 0.924805C11.9075 0.924805 15.075 4.09229 15.075 7.9998C15.075 11.9073 11.9075 15.0748 7.99999 15.0748C4.09247 15.0748 0.924988 11.9073 0.924988 7.9998ZM7.99999 2.0748C4.7276 2.0748 2.07499 4.72742 2.07499 7.9998C2.07499 11.2722 4.7276 13.9248 7.99999 13.9248C11.2724 13.9248 13.925 11.2722 13.925 7.9998C13.925 4.72742 11.2724 2.0748 7.99999 2.0748Z" fill="#343D8C"/>
<path fill-rule="evenodd" clip-rule="evenodd" d="M8.00261 3.5249C8.32018 3.5249 8.57761 3.78234 8.57761 4.0999V7.76467L11.1649 10.3523C11.3894 10.5768 11.3894 10.9409 11.1648 11.1654C10.9403 11.39 10.5762 11.39 10.3517 11.1654L7.596 8.40939C7.48818 8.30156 7.42761 8.15531 7.42761 8.00283V4.0999C7.42761 3.78234 7.68505 3.5249 8.00261 3.5249Z" fill="#343D8C"/>
</g>
<defs>
<clipPath id="clip0_5373_36578">
<rect width="16" height="16" fill="white"/>
</clipPath>
</defs>
</svg>
