<svg width="16" height="16" viewBox="0 0 16 16" fill="none" xmlns="http://www.w3.org/2000/svg">
<path fill-rule="evenodd" clip-rule="evenodd" d="M10.4533 0C14.9333 0 16 1.06667 16 5.54667V10.4533C16 14.9333 14.9333 16 10.4533 16H5.54667C1.06667 16 0 14.9333 0 10.4533V5.54667C0 1.06667 1.06667 0 5.54667 0H10.4533ZM4.33333 5H3.16667C2.83333 5 2.76667 5.16 2.76667 5.32667C2.76667 5.64 3.16 7.17333 4.60667 9.2C4.98938 9.8115 5.51152 10.3236 6.13032 10.6944C6.74911 11.0653 7.44695 11.2842 8.16667 11.3333C8.90667 11.3333 9 11.1667 9 10.88V9.83333C9 9.5 9.07333 9.43333 9.30667 9.43333C9.54 9.43333 9.77333 9.52 10.4667 10.1867C11.26 10.98 11.3867 11.3333 11.8333 11.3333H13C13.3333 11.3333 13.5 11.1667 13.4067 10.84C13.1583 10.3314 12.8246 9.86917 12.42 9.47333C12.1467 9.14667 11.7533 8.80667 11.6133 8.63333C11.4733 8.46 11.4933 8.30667 11.6133 8.11333C12.2311 7.28292 12.7585 6.38897 13.1867 5.44667C13.26 5.2 13.1867 5.02 12.8333 5.02H11.6667C11.5586 5.01406 11.4513 5.04245 11.3603 5.10112C11.2693 5.1598 11.1992 5.24574 11.16 5.34667C10.7985 6.2065 10.3158 7.0102 9.72667 7.73333C9.45333 8.00667 9.32667 8.09333 9.18 8.09333C9.03333 8.09333 9 8.00667 9 7.76V5.42667C9 5.13333 8.91333 5 8.66667 5H6.83333C6.75837 4.99633 6.68497 5.02221 6.62887 5.07207C6.57278 5.12193 6.53848 5.19179 6.53333 5.26667C6.53333 5.54667 6.96 5.61333 7 6.40667V8.12C7 8.5 6.93333 8.56667 6.78667 8.56667C6.38667 8.56667 5.45333 7.11333 4.85333 5.45333C4.74667 5.13333 4.66667 5 4.33333 5Z" fill="#343D8C"/>
</svg>
