<svg width="24" height="25" viewBox="0 0 24 25" fill="none" xmlns="http://www.w3.org/2000/svg">
<g clip-path="url(#clip0_5301_5548)">
<path fill-rule="evenodd" clip-rule="evenodd" d="M8.13306 18.2687L8.38964 18.4253C9.47733 19.0894 10.7295 19.4403 12.0108 19.4403C15.8487 19.4403 18.971 16.318 18.971 12.4801C18.971 8.64219 15.8487 5.51982 12.0108 5.51982C8.17293 5.51982 5.05056 8.64219 5.05056 12.4801C5.05056 13.8173 5.43063 15.116 6.14958 16.2355L6.32236 16.5046L5.64538 18.909L8.13306 18.2687ZM9.11227 8.54915L9.65617 8.5788C9.76323 8.58464 9.85776 8.65079 9.89994 8.74948L10.6923 10.6033C10.7346 10.7023 10.7168 10.8168 10.6464 10.8983L9.95671 11.6961C9.90084 11.7608 9.89104 11.8529 9.93043 11.9288C10.8388 13.6785 12.4942 14.3718 12.9883 14.5455C13.0726 14.5751 13.1659 14.5471 13.2204 14.4764L13.9421 13.5409C14.0223 13.4369 14.1638 13.4021 14.2832 13.4571L16.1213 14.3044C16.2411 14.3596 16.3066 14.4904 16.279 14.6193L16.1921 15.0249C16.0942 15.4826 15.8224 15.8874 15.4281 16.1396C14.9303 16.458 14.285 16.6144 13.4648 16.3825C10.9195 15.6627 9.48006 13.9775 8.70766 12.9243C7.93526 11.871 7.63682 10.8178 7.82993 9.95761C7.95943 9.38075 8.38105 8.93806 8.64473 8.70909C8.77386 8.59691 8.94143 8.53983 9.11227 8.54915Z" fill="#343D8C"/>
<path fill-rule="evenodd" clip-rule="evenodd" d="M24 0.5H0V24.5H24V0.5ZM3.60707 20.902L4.78266 16.7267C4.02669 15.4424 3.62867 13.9812 3.62867 12.4801C3.62867 7.85815 7.38889 4.09793 12.0108 4.09793C16.6328 4.09793 20.3929 7.85815 20.3929 12.4801C20.3929 17.102 16.6328 20.8622 12.0108 20.8622C10.5707 20.8622 9.16046 20.4936 7.91293 19.7936L3.60707 20.902Z" fill="#343D8C"/>
</g>
<defs>
<clipPath id="clip0_5301_5548">
<rect width="24" height="24" fill="white" transform="translate(0 0.5)"/>
</clipPath>
</defs>
</svg>
