<svg width="16" height="16" viewBox="0 0 16 16" fill="none" xmlns="http://www.w3.org/2000/svg">
<path d="M7.99504 2.40146C7.99504 2.40146 2.99439 2.40146 1.73929 2.72759C1.06727 2.91536 0.513907 3.46873 0.326136 4.15063C7.43048e-06 5.40573 0 8.00494 0 8.00494C0 8.00494 7.43048e-06 10.614 0.326136 11.8494C0.513907 12.5313 1.05738 13.0747 1.73929 13.2625C3.00427 13.5985 7.99504 13.5985 7.99504 13.5985C7.99504 13.5985 13.0056 13.5985 14.2607 13.2724C14.9426 13.0846 15.4861 12.551 15.6639 11.8592C16 10.614 16 8.01483 16 8.01483C16 8.01483 16.0098 5.40573 15.6639 4.15063C15.4861 3.46873 14.9426 2.92526 14.2607 2.74737C13.0056 2.40147 7.99504 2.40146 7.99504 2.40146ZM6.40391 5.60349L10.5646 8.00494L6.40391 10.3965V5.60349Z" fill="#343D8C"/>
</svg>
