<svg xmlns="http://www.w3.org/2000/svg" width="256" height="256"><path fill-opacity=".016" d="M0 128.004v128.004l128.25-.254 128.25-.254.254-127.75L257.008 0H0v128.004m.485.496c0 70.4.119 99.053.265 63.672.146-35.38.146-92.98 0-128C.604 29.153.485 58.1.485 128.5" fill="#1976D2" fill-rule="evenodd"/><path fill-opacity=".522" d="M112.5 2c-.34.55-2.054 1.016-3.809 1.036-2.81.031-7.884 1.12-18.191 3.904-5.094 1.376-13.618 5.028-22.5 9.639C38.117 32.092 13.667 62.816 5.195 95.5c-.57 2.2-1.522 5.852-2.116 8.116C2.486 105.88 2 109.817 2 112.366 2 114.915 1.55 117 1 117c-.613 0-1 4.833-1 12.5 0 6.875.408 12.5.907 12.5.5 0 1.14 2.362 1.423 5.25.647 6.598 1.575 11.673 2.607 14.25.44 1.1 1.809 5.15 3.041 9 3.829 11.964 11.431 26.045 19.879 36.824C38.765 221.24 57.191 236.176 72 243.105c9.844 4.607 16.464 7.021 27.5 10.031 6.437 1.756 52.472 1.942 57 .23 1.65-.624 5.025-1.68 7.5-2.347 2.475-.668 5.281-1.62 6.236-2.116.955-.497 2.305-.907 3-.912 3.601-.024 28.468-14.28 34.264-19.643 1.1-1.017 3.575-3.135 5.5-4.705 5.543-4.521 15.833-16.469 21.225-24.643 12.201-18.495 20.527-42.56 20.931-60.5.157-6.959.162-6.971.844-2 .469 3.419.686.89.686-8s-.217-11.419-.686-8c-.682 4.97-.687 4.958-.843-2-.309-13.76-4.984-30.262-13.346-47.104-14.29-28.784-40.858-52.028-72.311-63.266C163.594 6.02 150.983 3 148.077 3c-1.627 0-3.237-.45-3.577-1-.827-1.339-31.173-1.339-32 0M.389 129.5c.001 7.15.161 9.944.353 6.208.193-3.735.192-9.585-.003-13-.194-3.414-.352-.358-.35 6.792" fill="#1976D2" fill-rule="evenodd"/><path fill-opacity=".441" d="M110.5 3.959c-10.918 1.78-13.33 2.354-22 5.233-29.396 9.763-53.265 29.028-69.227 55.876C15.557 71.317 13.506 75.389 12 79.5c-.403 1.1-1.22 3.125-1.816 4.5-8.69 20.052-10.378 52.656-4.014 77.5.564 2.2 1.431 4.781 1.927 5.736.497.955.903 2.424.903 3.264 0 .84.429 2.309.952 3.264.524.955 2.546 5.111 4.493 9.236 10.475 22.19 23.82 37.484 45.055 51.634C65.703 238.768 81.957 247 83.916 247c.611 0 1.893.406 2.848.903 2.059 1.07 7.818 2.634 14.736 4.002l10.326 2.042c10.855 2.146 33.99.699 47.674-2.983 2.2-.592 5.35-1.443 7-1.89 6.018-1.631 17.154-6.519 23.352-10.25 3.494-2.103 6.528-3.824 6.742-3.824.885 0 10.414-7.633 17.538-14.048 6.999-6.304 16.767-18.059 21.147-25.45 3.21-5.416 10.503-20.899 12.248-26.002 8.694-25.42 8.691-56.668-.006-82-6.874-20.019-19.685-38.898-36.695-54.077C197.364 21.412 179.572 11.96 161.5 7.218c-2.2-.577-5.8-1.563-8-2.192-4.927-1.407-36.158-2.183-43-1.067" fill="#1976D2" fill-rule="evenodd"/><path fill-opacity=".165" d="M8.708 89.199C8.421 91.014 7.657 94.3 7.01 96.5s-1.316 5.185-1.486 6.633c-.17 1.447-.624 4.5-1.01 6.784-.463 2.743-.289 4.649.515 5.618.853 1.027.881 1.465.093 1.465-.617 0-1.122.675-1.122 1.5s.45 1.5 1 1.5 1 1.575 1 3.5-.45 3.5-1 3.5c-1.766 0-1.067 2.477 1.076 3.815 1.601 1 1.818 1.607.951 2.652-.757.912-.788 1.563-.096 1.99 1.047.647-.466 4.344-2.33 5.694-.502.364-.566 2.796-.145 5.5.414 2.667.702 6.057.638 7.533-.064 1.477.339 2.966.895 3.309.556.344 1.018 1.611 1.026 2.816.027 3.919 2.713 10.165 4.846 11.269 1.633.845 1.82 1.341.869 2.292-.882.882-.908 1.406-.094 1.922.615.389 1.439 2.62 1.829 4.958.391 2.338 1.121 4.25 1.623 4.25s.912.62.912 1.378c0 .757.67 1.933 1.489 2.613.819.68 1.277 1.578 1.019 1.997-.259.418.558 1.87 1.814 3.226 1.257 1.356 2.119 2.964 1.916 3.573-.248.742.811.917 3.196.53 3.9-.633 4.72.747 2.141 3.604-1.253 1.389-.974 2.092 2.312 5.829 2.056 2.338 4.609 4.257 5.675 4.265 1.318.011 1.544.266.707.798-.894.567-.455 1.593 1.599 3.735 4.315 4.5 10.243 9.709 14.132 12.418 1.925 1.341 3.725 2.706 4 3.034.643.767 7.639 4.786 16.389 9.415 6.51 3.444 6.991 3.551 8.75 1.96 1.761-1.594 1.861-1.567 1.861.501 0 1.203.787 2.438 1.75 2.746.963.308 2.65.917 3.75 1.355 3.683 1.464 9.941 2.951 17 4.039 9.026 1.39 29.872.75 31.958-.981 1.281-1.064 1.542-1.006 1.542.343 0 1.995 1.649 2.053 5.233.184 1.659-.865 2.967-1.047 3.328-.463.87 1.407 11.986-.625 18.439-3.371 1.375-.585 2.95-1.128 3.5-1.207.55-.078 2.673-.903 4.718-1.832s4.093-1.689 4.551-1.689c1.475 0 6.215-2.475 6.223-3.25.004-.412.702-.75 1.55-.75.848 0 2.086-.452 2.75-1.004 1.563-1.299 10.019-7.156 15.469-10.714 2.471-1.612 4.051-3.328 3.762-4.083-.275-.717-.066-1.035.464-.707 1.214.75 8.217-6.352 7.465-7.57-.306-.495.221-.601 1.17-.237 1.293.496 1.573.266 1.118-.92-.414-1.078.092-1.757 1.587-2.132 1.206-.303 2.951-1.807 3.876-3.342.926-1.535 2.834-4.009 4.24-5.497 1.406-1.489 2.567-3.064 2.579-3.5.012-.437.866-1.891 1.897-3.232 1.03-1.341 1.661-2.993 1.401-3.67-.259-.677.328-2.451 1.305-3.942 1.495-2.283 1.78-5.029 1.796-17.331.016-12.92-.248-15.286-2.27-20.361-8.024-20.132-18.771-31.163-38.365-39.378-7.815-3.277-8.968-3.481-20.286-3.584-10.059-.092-13.051.256-18.5 2.149-17.254 5.993-26.712 12.851-35.244 25.555-6.027 8.975-16.963 16.631-30.756 21.532-9.431 3.352-28.446 3.454-38.5.208-13.498-4.359-26.832-14.856-35.208-27.715-7.01-10.763-8.515-15.943-8.814-30.33-.261-12.582-.841-15.862-1.77-9.996M40.5 216c-.34.55.11 1 1 1s1.34-.45 1-1c-.34-.55-.79-1-1-1-.21 0-.66.45-1 1" fill="#1976D2" fill-rule="evenodd"/></svg>