<svg id="Слой_1" data-name="Слой 1" xmlns="http://www.w3.org/2000/svg" viewBox="0 0 668.57 141.11"><defs><style>.cls-1{fill:#1b75bb;}</style></defs><path class="cls-1" d="M307.08,33.29a11.09,11.09,0,0,1,4.05-6.55,11.33,11.33,0,0,1,6.74-2,12.63,12.63,0,0,1,4.5.83,12.8,12.8,0,0,1,3.92,2.38,11.27,11.27,0,0,1,2.76,3.85,12.62,12.62,0,0,1,1,5.14,21.17,21.17,0,0,1-.13,2.18,11.9,11.9,0,0,1-.51,2.32l-20.82,65.89a11.85,11.85,0,0,1-5.07,6.62,13.37,13.37,0,0,1-6.87,2.12,12.77,12.77,0,0,1-7.39-2.25,12.93,12.93,0,0,1-4.81-6.49l-12-33.14L261.1,107.28A11.87,11.87,0,0,1,256,113.9a12.92,12.92,0,0,1-14.38-.13,11.43,11.43,0,0,1-4.69-6.49l-22.1-66.41c-.25-.68-.49-1.32-.7-1.92a5.59,5.59,0,0,1-.32-1.93,12.61,12.61,0,0,1,1-5.14,11.75,11.75,0,0,1,6.75-6.36,13.47,13.47,0,0,1,4.69-.83,12.24,12.24,0,0,1,6.8,2,10.86,10.86,0,0,1,4.37,6.49l12.33,44.31,11.69-43.67A12.13,12.13,0,0,1,265.59,27,11.72,11.72,0,0,1,273,24.69,12.32,12.32,0,0,1,280,27a11.3,11.3,0,0,1,4.57,6.81L296,77.48Z" transform="translate(-1 -5.62)"/><path class="cls-1" d="M365.14,103.56q0,6.16-3.72,9.31a13.78,13.78,0,0,1-17.54,0q-3.66-3.15-3.66-9.31V37q0-5.91,3.66-9.12a13.59,13.59,0,0,1,17.54,0q3.72,3.21,3.72,9.12Z" transform="translate(-1 -5.62)"/><path class="cls-1" d="M387.88,115.5q-12.35,0-12.34-12.58V37q0-5.91,3.67-9.12a12.72,12.72,0,0,1,8.67-3.21,13,13,0,0,1,8.73,3.21q3.72,3.21,3.73,9.12V90.46h13.23q5.78,0,8.8,3.66a13.39,13.39,0,0,1,3,8.8,13.66,13.66,0,0,1-3,8.86q-3,3.72-8.8,3.72Z" transform="translate(-1 -5.62)"/><path class="cls-1" d="M444.39,115.5q-12.33,0-12.33-12.58V37q0-5.91,3.67-9.12a12.69,12.69,0,0,1,8.66-3.21,13,13,0,0,1,8.74,3.21q3.72,3.21,3.73,9.12V90.46h13.23q5.78,0,8.8,3.66a13.39,13.39,0,0,1,3,8.8,13.66,13.66,0,0,1-3,8.86q-3,3.72-8.8,3.72Z" transform="translate(-1 -5.62)"/><path class="cls-1" d="M513.37,102.92q0,6.17-3.72,9.31a13.13,13.13,0,0,1-8.74,3.15,12.86,12.86,0,0,1-8.67-3.15q-3.66-3.15-3.66-9.31V37.66q0-12.58,12.33-12.59h42.4q5.9,0,9.18,3.73a13,13,0,0,1,3.27,8.86,13,13,0,0,1-3.27,8.86q-3.29,3.73-9.18,3.73H513.37V59h24.41q5.78,0,8.86,3.54a13,13,0,0,1,0,16.83q-3.07,3.53-8.86,3.53H513.37Z" transform="translate(-1 -5.62)"/><path class="cls-1" d="M587.23,103.56q0,6.16-3.72,9.31a13.77,13.77,0,0,1-17.53,0q-3.68-3.15-3.67-9.31V37q0-5.91,3.67-9.12a13.57,13.57,0,0,1,17.53,0q3.72,3.21,3.72,9.12Z" transform="translate(-1 -5.62)"/><path class="cls-1" d="M597.63,37.66a10.53,10.53,0,0,1,1.16-4.75,14.2,14.2,0,0,1,3-4A15.18,15.18,0,0,1,606,26.1a11.37,11.37,0,0,1,4.62-1h12.08a49.3,49.3,0,0,1,20.48,4,44.16,44.16,0,0,1,14.65,10.41,43,43,0,0,1,8.79,14.71,49.56,49.56,0,0,1,3,16.76,48.67,48.67,0,0,1-2.83,16.44,42.27,42.27,0,0,1-8.48,14.26,41.47,41.47,0,0,1-14,10.08,46.84,46.84,0,0,1-19.53,3.79H610.61q-5.91,0-9.44-3.34t-3.54-9.24Zm27.24,52.8a20,20,0,0,0,8.67-1.8A19,19,0,0,0,639.83,84a19.84,19.84,0,0,0,3.79-6.68,23.62,23.62,0,0,0,1.29-7.64,20.67,20.67,0,0,0-1.22-7A18.4,18.4,0,0,0,640,56.54a18.06,18.06,0,0,0-6.3-4.36,22.36,22.36,0,0,0-9-1.67h-2.18V90.46Z" transform="translate(-1 -5.62)"/><path class="cls-1" d="M174.46,8.88a14.4,14.4,0,0,0-9.13-3.26,14.59,14.59,0,0,0-2.86.28l-72,14.54-.08,0h0l-21.2-4.36a14,14,0,0,0-2.64-.29,14.72,14.72,0,0,0-1.61-.44L43.81,11a14.15,14.15,0,0,0-2.66-.29,12.62,12.62,0,0,0-1.63-.44L18.32,5.91a14.93,14.93,0,0,0-2.9-.29A14.42,14.42,0,0,0,1,20V81.61c0,.92,0,1.83.12,2.79a14.42,14.42,0,0,0,9.63,12.39l36.42,12.67,29.94,30.59a14.37,14.37,0,0,0,2.65,2.11,14.81,14.81,0,0,0,21.71-.34,14.38,14.38,0,0,0,2.34-2L131.69,110l31.49-8.38a14.43,14.43,0,0,0,10.71-13.93V62.14a14.43,14.43,0,0,0,5.85-11.61V20A14.41,14.41,0,0,0,174.46,8.88ZM90.78,138a6.31,6.31,0,1,1,6.31-6.31A6.31,6.31,0,0,1,90.78,138Zm74.58-91.61a5.41,5.41,0,0,1-4,5L128,59.06a5.44,5.44,0,0,0-4,5v1.32a3.07,3.07,0,0,0,4,3.13l27.49-6.75a3.09,3.09,0,0,1,4,3.14V83.56a5.68,5.68,0,0,1-4,5.19L128,96.07a16.92,16.92,0,0,0-6.79,4.07l-20,21.43a14.81,14.81,0,0,0-21.66.28L58,99.89a20.89,20.89,0,0,0-6.77-4.29L19.42,84.53c-2.14-.74-3.94-2.1-4-2.39s0-2.38,0-4.65V24.15a3.22,3.22,0,0,1,4-3.28l13.13,2.7a5.28,5.28,0,0,1,4,4.94V70.66c0,2.26,1,4.44,2.13,4.84s2.13-1.13,2.13-3.39V29.24A3.23,3.23,0,0,1,45,26l13,2.69a5.28,5.28,0,0,1,4,5V79.53c0,2.27,1,4.45,2.14,4.85s2.13-1.13,2.13-3.4V34.33a3.23,3.23,0,0,1,4-3.29l13.13,2.7a5.28,5.28,0,0,1,4,4.95v67h0a3.31,3.31,0,0,0-.06.56,2.95,2.95,0,1,0,5.9,0,3,3,0,0,0,0-.43h0V38.69a5.27,5.27,0,0,1,4-4.94l64-12.9a3.24,3.24,0,0,1,4,3.3Z" transform="translate(-1 -5.62)"/></svg>